<?xml version="1.0" encoding="UTF-8" standalone="no"?>
<!DOCTYPE svg PUBLIC "-//W3C//DTD SVG 1.1//EN" "http://www.w3.org/Graphics/SVG/1.1/DTD/svg11.dtd">
<svg version="1.1" xmlns="http://www.w3.org/2000/svg" xmlns:xlink="http://www.w3.org/1999/xlink" preserveAspectRatio="xMidYMid meet" viewBox="0 0 640 640" width="640" height="640"><defs><path d="M640 0L640 640L0 640L0 0L640 0Z" id="f27mDiLdTW"></path><path d="M640 0L640 640L0 640L0 0L640 0Z" id="a3rjELFkCn"></path><path d="M565.73 53.81C570.16 59.17 573.91 64.92 577.07 70.99C578.88 68.31 587.95 54.91 604.28 30.8C579.08 42.3 565.09 48.7 562.29 49.97C563.47 51.19 564.62 52.46 565.73 53.81ZM361.79 77.52C359.52 75.61 348.2 66.05 327.81 48.83C330.97 80.73 332.72 98.44 333.08 101.99C342.1 93.26 351.67 85 361.79 77.52ZM452.77 61.41C454.73 64.43 464.54 79.5 482.21 106.64C482.26 106.72 482.66 107.33 482.71 107.41C482.93 107.92 483.06 108.2 483.08 108.26C486.96 117.11 485.96 126.37 483.07 135.02C480.19 143.68 475.07 151.98 467.47 158.19C459.86 164.39 449.02 168.23 437.7 165.83C426.38 163.43 415.7 155.57 405.82 142.33C405.67 142.14 404.96 141.18 403.67 139.45C402.84 103.05 402.38 82.82 402.29 78.78C370.87 94.95 342.86 121.69 319.57 150.09C320.99 150.87 328.14 154.8 340.99 161.87C341.35 162.07 344.25 163.66 344.61 163.86C345.49 166.17 345.98 167.45 346.08 167.71C352.19 183.69 352.51 200.36 344.29 214.12C336.07 227.89 320.96 237.55 300 244.49C299.42 244.68 296.55 245.63 291.37 247.35C282.63 232.48 277.78 224.22 276.81 222.57C274.67 227.27 272.54 232.02 270.44 236.86C269 245.91 261.83 291.17 248.91 372.64C246.85 326.44 245.7 300.77 245.47 295.64C232.42 325.9 218.2 356.17 200.36 383.22C149.55 460.27 35.4 577.51 35.4 577.51C35.4 577.52 35.37 577.55 35.32 577.6C35.26 577.66 35.23 577.68 35.23 577.69C30.35 582.5 30.34 584.66 30.88 587.31C31.25 589.08 32.57 591.52 34.84 594.09C42.94 587.53 83.43 554.74 156.3 495.7C93.3 561.18 58.29 597.55 51.29 604.83C58.51 607.71 66.17 609.31 71.16 609.2C79.77 601.09 154.55 531.07 205.05 498.39C252.69 467.55 292.29 430.79 337.95 395.84C338.97 389.94 344.06 360.47 353.22 307.43C353.27 307.16 353.63 305.02 353.68 304.75C354.66 303.44 355.21 302.72 355.32 302.57C363.8 291.33 374.8 284.78 385.95 283.41C388.68 283.08 391.44 283.03 394.19 283.27C402.27 283.97 409.81 287.08 416.17 291.51C431.03 301.87 441.38 320.02 438.68 338.61C447.13 334.86 455.47 331.1 463.53 327.16C489.37 314.54 511.91 300.5 527.36 280.21C518.58 279.53 510.38 275.62 503.57 270.41C494.25 263.27 486.81 253.46 482.01 242.66C477.21 231.86 474.85 219.8 478.29 208.14C481.73 196.48 492.22 186.55 506.83 183.13C506.89 183.11 507.15 183.05 507.64 182.93C541.88 180.09 560.91 178.51 564.72 178.19C565.87 171.68 566.8 165.16 567.45 158.71C568.73 146.09 568.92 133.8 567.89 122.23C565.48 124.83 553.43 137.85 531.73 161.29C546.64 112.83 554.92 85.91 556.58 80.53C554.23 76.07 551.51 71.93 548.39 68.14C539.56 57.46 528.14 52.87 514.04 51.95C511.62 51.79 509.2 51.74 506.77 51.78C504.27 51.82 501.69 51.94 499.04 52.15C484.57 53.28 468.58 57.13 452.77 61.41ZM442.36 143.82C446.59 144.72 449.68 143.66 453.24 140.75C456.81 137.84 460.1 132.82 461.73 127.91C463.29 123.21 462.99 119.03 462.51 117.62C459.96 113.72 447.24 94.17 424.35 58.99C425.33 102.44 425.88 126.58 425.99 131.41C432.8 139.69 438.54 143.01 442.36 143.82ZM324.98 202.58C328.75 196.27 329.24 189.16 326.18 179.4C321.38 176.76 297.42 163.58 254.28 139.86C282.49 187.84 298.17 214.5 301.3 219.84C313.89 214.52 321.47 208.45 324.98 202.58ZM499.87 214.5C498.56 218.95 499.3 226.17 502.56 233.52C505.83 240.87 511.42 248.08 517.24 252.55C522.37 256.47 527.08 257.95 530.9 257.68C531.65 257.14 532.42 256.58 533.6 255.71C537.88 252.5 542.14 249.27 546.38 246.01C556.87 237.97 570.67 227.27 584.39 216.58C596.94 206.8 599.49 204.77 609.35 197.06C609.35 197.06 521.23 204.38 511.43 205.2C503.27 207.23 501.15 210.16 499.87 214.5ZM374.85 314.33C373.48 322.29 366.61 362.09 354.23 433.73C391.12 376.35 411.61 344.47 415.71 338.1C418.23 329.21 412.59 316.44 403.3 309.97C399.71 307.46 395.95 306.01 392.29 305.69C391.69 305.64 391.08 305.61 390.48 305.62C389.88 305.63 389.28 305.67 388.69 305.74C384.41 306.27 379.82 308.47 374.85 314.33ZM454.04 356.42C456.36 357.84 467.92 364.94 488.74 377.73C488.17 374.21 483.57 346.04 483 342.52C478.75 344.71 475.55 346.33 473.4 347.38C466.99 350.51 460.52 353.49 454.04 356.42Z" id="b2011p6Da"></path><path d="M565.73 53.81C570.16 59.17 573.91 64.92 577.07 70.99C578.88 68.31 587.95 54.91 604.28 30.8C579.08 42.3 565.09 48.7 562.29 49.97C563.47 51.19 564.62 52.46 565.73 53.81ZM361.79 77.52C359.52 75.61 348.2 66.05 327.81 48.83C330.97 80.73 332.72 98.44 333.08 101.99C342.1 93.26 351.67 85 361.79 77.52ZM452.77 61.41C454.73 64.43 464.54 79.5 482.21 106.64C482.26 106.72 482.66 107.33 482.71 107.41C482.93 107.92 483.06 108.2 483.08 108.26C486.96 117.11 485.96 126.37 483.07 135.02C480.19 143.68 475.07 151.98 467.47 158.19C459.86 164.39 449.02 168.23 437.7 165.83C426.38 163.43 415.7 155.57 405.82 142.33C405.67 142.14 404.96 141.18 403.67 139.45C402.84 103.05 402.38 82.82 402.29 78.78C370.87 94.95 342.86 121.69 319.57 150.09C320.99 150.87 328.14 154.8 340.99 161.87C341.35 162.07 344.25 163.66 344.61 163.86C345.49 166.17 345.98 167.45 346.08 167.71C352.19 183.69 352.51 200.36 344.29 214.12C336.07 227.89 320.96 237.55 300 244.49C299.42 244.68 296.55 245.63 291.37 247.35C282.63 232.48 277.78 224.22 276.81 222.57C274.67 227.27 272.54 232.02 270.44 236.86C269 245.91 261.83 291.17 248.91 372.64C246.85 326.44 245.7 300.77 245.47 295.64C232.42 325.9 218.2 356.17 200.36 383.22C149.55 460.27 35.4 577.51 35.4 577.51C35.4 577.52 35.37 577.55 35.32 577.6C35.26 577.66 35.23 577.68 35.23 577.69C30.35 582.5 30.34 584.66 30.88 587.31C31.25 589.08 32.57 591.52 34.84 594.09C42.94 587.53 83.43 554.74 156.3 495.7C93.3 561.18 58.29 597.55 51.29 604.83C58.51 607.71 66.17 609.31 71.16 609.2C79.77 601.09 154.55 531.07 205.05 498.39C252.69 467.55 292.29 430.79 337.95 395.84C338.97 389.94 344.06 360.47 353.22 307.43C353.27 307.16 353.63 305.02 353.68 304.75C354.66 303.44 355.21 302.72 355.32 302.57C363.8 291.33 374.8 284.78 385.95 283.41C388.68 283.08 391.44 283.03 394.19 283.27C402.27 283.97 409.81 287.08 416.17 291.51C431.03 301.87 441.38 320.02 438.68 338.61C447.13 334.86 455.47 331.1 463.53 327.16C489.37 314.54 511.91 300.5 527.36 280.21C518.58 279.53 510.38 275.62 503.57 270.41C494.25 263.27 486.81 253.46 482.01 242.66C477.21 231.86 474.85 219.8 478.29 208.14C481.73 196.48 492.22 186.55 506.83 183.13C506.89 183.11 507.15 183.05 507.64 182.93C541.88 180.09 560.91 178.51 564.72 178.19C565.87 171.68 566.8 165.16 567.45 158.71C568.73 146.09 568.92 133.8 567.89 122.23C565.48 124.83 553.43 137.85 531.73 161.29C546.64 112.83 554.92 85.91 556.58 80.53C554.23 76.07 551.51 71.93 548.39 68.14C539.56 57.46 528.14 52.87 514.04 51.95C511.62 51.79 509.2 51.74 506.77 51.78C504.27 51.82 501.69 51.94 499.04 52.15C484.57 53.28 468.58 57.13 452.77 61.41ZM442.36 143.82C446.59 144.72 449.68 143.66 453.24 140.75C456.81 137.84 460.1 132.82 461.73 127.91C463.29 123.21 462.99 119.03 462.51 117.62C459.96 113.72 447.24 94.17 424.35 58.99C425.33 102.44 425.88 126.58 425.99 131.41C432.8 139.69 438.54 143.01 442.36 143.82ZM324.98 202.58C328.75 196.27 329.24 189.16 326.18 179.4C321.38 176.76 297.42 163.58 254.28 139.86C282.49 187.84 298.17 214.5 301.3 219.84C313.89 214.52 321.47 208.45 324.98 202.58ZM499.87 214.5C498.56 218.95 499.3 226.17 502.56 233.52C505.83 240.87 511.42 248.08 517.24 252.55C522.37 256.47 527.08 257.95 530.9 257.68C531.65 257.14 532.42 256.58 533.6 255.71C537.88 252.5 542.14 249.27 546.38 246.01C556.87 237.97 570.67 227.27 584.39 216.58C596.94 206.8 599.49 204.77 609.35 197.06C609.35 197.06 521.23 204.38 511.43 205.2C503.27 207.23 501.15 210.16 499.87 214.5ZM374.85 314.33C373.48 322.29 366.61 362.09 354.23 433.73C391.12 376.35 411.61 344.47 415.71 338.1C418.23 329.21 412.59 316.44 403.3 309.97C399.71 307.46 395.95 306.01 392.29 305.69C391.69 305.64 391.08 305.61 390.48 305.62C389.88 305.63 389.28 305.67 388.69 305.74C384.41 306.27 379.82 308.47 374.85 314.33ZM454.04 356.42C456.36 357.84 467.92 364.94 488.74 377.73C488.17 374.21 483.57 346.04 483 342.52C478.75 344.71 475.55 346.33 473.4 347.38C466.99 350.51 460.52 353.49 454.04 356.42Z" id="h3xhV1uOuH"></path></defs><g><g><g><use xlink:href="#f27mDiLdTW" opacity="1" fill="#090101" fill-opacity="0"></use><g><use xlink:href="#f27mDiLdTW" opacity="1" fill-opacity="0" stroke="#000000" stroke-width="1" stroke-opacity="0"></use></g></g><g><use xlink:href="#a3rjELFkCn" opacity="1" fill="#000000" fill-opacity="0"></use><g><use xlink:href="#a3rjELFkCn" opacity="1" fill-opacity="0" stroke="#000000" stroke-width="1" stroke-opacity="0"></use></g></g><g><use xlink:href="#b2011p6Da" opacity="1" fill="#8a08dd" fill-opacity="1"></use><g><use xlink:href="#b2011p6Da" opacity="1" fill-opacity="0" stroke="#000000" stroke-width="1" stroke-opacity="0"></use></g></g><g><use xlink:href="#h3xhV1uOuH" opacity="1" fill="#000000" fill-opacity="0"></use><g><use xlink:href="#h3xhV1uOuH" opacity="1" fill-opacity="0" stroke="#000000" stroke-width="1" stroke-opacity="0"></use></g></g></g></g></svg>